Coordinates
version=1
nRows=17
nColumns=24
inDegrees=yes

Units are S.I. units (second, meters, Newtons, ...)
Angles are in degrees.

endheader
time	pelvis_tilt	pelvis_list	pelvis_rotation	pelvis_tx	pelvis_ty	pelvis_tz	hip_flexion_r	hip_adduction_r	hip_rotation_r	knee_angle_r	ankle_angle_r	subtalar_angle_r	mtp_angle_r	hip_flexion_l	hip_adduction_l	hip_rotation_l	knee_angle_l	ankle_angle_l	subtalar_angle_l	mtp_angle_l	lumbar_extension	lumbar_bending	lumbar_rotation
      4.04500000	     -5.63439824	      1.38738810	     -0.56998828	     -1.36515803	      0.00278249	     -0.29080827	     -0.98373614	      4.26066569	      5.33858826	     -5.59104972	      5.12600247	    -10.73644552	      3.21303514	     28.78036455	     -4.38526358	    -12.67143689	    -40.95760740	      1.81044129	    -10.57124962	      1.89363770	      0.92685685	     -2.62585016	      5.62262824
      4.05000000	     -5.51065892	      1.38738318	     -0.82830899	     -1.35890510	      0.00238019	     -0.29080101	     -1.72199867	      4.22269952	      5.20619306	     -5.20237808	      5.23139805	    -10.38117677	      3.74992138	     28.74723114	     -4.39609801	    -13.11394471	    -39.28976069	      1.92757250	    -10.26575046	      2.22905264	      0.74108316	     -2.60406142	      6.02514923
      4.05500000	     -5.55394260	      1.27959260	     -1.13696642	     -1.35267735	      0.00165990	     -0.29069390	     -2.24354078	      4.31160830	      5.14706804	     -4.88671677	      5.36644625	    -10.04005595	      4.16507102	     28.91809474	     -4.57738405	    -13.63301807	    -37.69514747	      2.14831131	     -9.78760894	      2.42084747	      0.73160056	     -2.47051137	      6.41079797
      4.06000000	     -5.45211747	      1.29134885	     -1.36102765	     -1.34627696	      0.00103685	     -0.29077568	     -2.95476265	      4.24144857	      4.88537246	     -4.51554407	      5.48637523	     -9.53604820	      5.29099155	     28.86598048	     -4.54486516	    -14.05267240	    -35.97613189	      2.19842977	     -9.42524489	      2.74010768	      0.59068413	     -2.46325682	      6.72440430
      4.06500000	     -5.56234921	      1.14891966	     -1.66537421	     -1.33998601	      0.00005813	     -0.29066769	     -3.39235379	      4.36464090	      4.89485517	     -4.24742369	      5.65800443	     -9.23150946	      5.63720056	     29.08836249	     -4.76326410	    -14.57830760	    -34.38151159	      2.40293886	     -8.82925938	      2.82494312	      0.66119067	     -2.29306422	      7.08883168
      4.07000000	     -5.40916383	      1.15442861	     -1.89143731	     -1.33355089	     -0.00066488	     -0.29081731	     -4.12514759	      4.29020667	      4.50623645	     -3.94005603	      5.80098472	     -8.60852653	      7.01894049	     28.93861915	     -4.72465810	    -15.05229446	    -32.61810169	      2.39725422	     -8.45418125	      3.00776634	      0.46406763	     -2.27408663	      7.40391803
      4.07500000	     -5.53115218	      1.02807934	     -2.21169533	     -1.32722943	     -0.00178052	     -0.29074819	     -4.51414756	      4.38624542	      4.54688563	     -3.75185182	      6.00837252	     -8.29958999	      7.40319262	     29.12864416	     -4.92717536	    -15.66072387	    -30.98293519	      2.51927393	     -7.82635604	      3.05854381	      0.54676519	     -2.11244532	      7.78755005
      4.08000000	     -5.35442334	      1.04203538	     -2.42412363	     -1.32075239	     -0.00261887	     -0.29094011	     -5.23784001	      4.29687790	      4.11632817	     -3.51791860	      6.19738468	     -7.64323003	      8.83612887	     28.91326552	     -4.86659678	    -16.19187562	    -29.18533529	      2.45250955	     -7.36879468	      3.32067415	      0.32939685	     -2.10367731	      8.07221657
      4.08500000	     -5.32480310	      1.00686454	     -2.70096343	     -1.31432496	     -0.00367400	     -0.29102164	     -5.76597158	      4.27039391	      3.91129982	     -3.35399216	      6.33110426	     -7.20448503	     10.14256277	     28.85616238	     -4.92075618	    -16.86769139	    -27.42743545	      2.40512471	     -6.74216540	      3.77602210	      0.26239023	     -2.03735520	      8.41351806
      4.09000000	     -5.40409263	      0.94760295	     -3.00828866	     -1.30794307	     -0.00486544	     -0.29107553	     -6.13891515	      4.28007764	      3.91049936	     -3.29299015	      6.61877020	     -6.89134976	     10.52187558	     28.91547052	     -5.02206684	    -17.62753097	    -25.70495775	      2.42418949	     -6.03391529	      3.97080964	      0.30856811	     -1.93756882	      8.78864333
      4.09500000	     -5.19958216	      1.04499043	     -3.18709750	     -1.30140602	     -0.00575826	     -0.29134685	     -6.83388899	      4.09114314	      3.55531294	     -3.19429176	      6.93376243	     -6.28388976	     11.50995362	     28.58409011	     -4.84788496	    -18.34542241	    -23.81136192	      2.18931925	     -5.36009547	      5.00054894	      0.06667735	     -2.02184873	      8.97823324
      4.10000000	     -5.26230313	      1.05693562	     -3.50656687	     -1.29499903	     -0.00692437	     -0.29143061	     -7.17267589	      4.01362460	      3.56067687	     -3.22704315	      7.25152105	     -5.97340124	     11.88512823	     28.56561551	     -4.87569064	    -19.32952200	    -22.05243190	      2.22026529	     -4.40081527	      5.52074719	      0.09967200	     -1.99396498	      9.36867045
      4.10500000	     -5.14905548	      1.21509651	     -3.70151815	     -1.28849431	     -0.00788169	     -0.29169334	     -7.69255653	      3.75948821	      3.18386706	     -3.23575811	      7.47931491	     -5.43492917	     13.37176666	     28.26657495	     -4.64558910	    -20.29714189	    -20.01199101	      1.35904708	     -3.78206858	      9.44968276	     -0.04605387	     -2.14094837	      9.56878606
      4.11000000	     -5.09011992	      1.34212144	     -3.90062350	     -1.28210004	     -0.00885651	     -0.29193986	     -8.14214956	      3.55022455	      3.15969559	     -3.30698612	      7.81183798	     -5.19962911	     13.50611276	     28.09800559	     -4.47254693	    -21.40704466	    -18.27468977	      1.50301562	     -2.41900290	      9.93358117	     -0.15317111	     -2.25195528	      9.75118353
      4.11500000	     -4.70710097	      1.65774769	     -4.04016473	     -1.27551985	     -0.00945013	     -0.29234399	     -8.94429599	      3.10483281	      2.75877785	     -3.35941418	      8.23247583	     -4.64439227	     13.92888701	     27.45775346	     -3.98134755	    -22.50770977	    -16.23674774	      0.95311329	     -1.45229048	     13.10946368	     -0.56753694	     -2.57899525	      9.90452771
      4.12000000	     -4.66885003	      1.83529099	     -4.27401474	     -1.26909941	     -0.01042322	     -0.29259259	     -9.31004451	      2.82986077	      2.74448002	     -3.52731808	      8.54433408	     -4.42160041	     14.32585574	     27.25695153	     -3.74813937	    -23.85787933	    -14.38911723	      0.52030167	     -0.01095571	     16.80847939	     -0.64189504	     -2.74200180	     10.12084658
      4.12500000	     -4.58835915	      2.04912970	     -4.46200296	     -1.26266048	     -0.01131177	     -0.29301639	     -9.69041984	      2.51089892	      2.51774242	     -3.74766545	      8.91213677	     -4.05677114	     14.55122950	     27.02335527	     -3.40735733	    -25.14044072	    -12.62778709	      0.32546921	      1.55904271	     19.08951289	     -0.76425174	     -2.93657529	     10.34422980
